<?xml version="1.0" encoding="utf-8"?>
<!-- Generator: Adobe Illustrator 17.1.0, SVG Export Plug-In . SVG Version: 6.00 Build 0)  -->
<!DOCTYPE svg PUBLIC "-//W3C//DTD SVG 1.1//EN" "http://www.w3.org/Graphics/SVG/1.1/DTD/svg11.dtd">
<svg version="1.1" id="Capa_1" xmlns="http://www.w3.org/2000/svg" xmlns:xlink="http://www.w3.org/1999/xlink" x="0px" y="0px"
	 viewBox="0 0 16 18" enable-background="new 0 0 16 18" xml:space="preserve">
<g>
	<path fill="#FFFFFF" d="M14.2,6.7h-0.4V4.9c0,0,0,0,0,0c0-0.1,0-0.1-0.1-0.2l-3.1-3.5c0,0,0,0,0,0c0,0,0,0-0.1-0.1c0,0,0,0,0,0
		c0,0,0,0-0.1,0c0,0,0,0,0,0c0,0,0,0-0.1,0H2.8C2.5,1,2.2,1.3,2.2,1.6v5.1H1.8c-0.5,0-0.9,0.4-0.9,0.9v4.7c0,0.5,0.4,0.9,0.9,0.9
		h0.4v3.2c0,0.3,0.3,0.6,0.6,0.6h10.4c0.3,0,0.6-0.3,0.6-0.6v-3.2h0.4c0.5,0,0.9-0.4,0.9-0.9V7.6C15.1,7.1,14.7,6.7,14.2,6.7z
		 M2.8,1.6h7.3v3.2c0,0.2,0.1,0.3,0.3,0.3h2.8v1.6H2.8V1.6z M7.5,10.1C6.8,9.9,6.3,9.4,6.3,8.8C6.3,8,6.9,7.3,8,7.3
		c0.5,0,0.9,0.1,1.2,0.2L9,8.4C8.8,8.3,8.5,8.2,8,8.2c-0.5,0-0.7,0.2-0.7,0.5c0,0.3,0.3,0.4,0.9,0.7c0.8,0.3,1.2,0.7,1.2,1.4
		c0,0.8-0.6,1.5-1.9,1.5c-0.5,0-1.1-0.1-1.3-0.3L6.4,11c0.3,0.1,0.7,0.3,1.2,0.3c0.5,0,0.7-0.2,0.7-0.5C8.3,10.5,8.1,10.3,7.5,10.1z
		 M2,9.8c0-1.6,1.1-2.5,2.6-2.5c0.5,0,1,0.1,1.2,0.2L5.5,8.4C5.3,8.3,5,8.2,4.6,8.2c-0.8,0-1.5,0.5-1.5,1.5c0,0.9,0.6,1.5,1.5,1.5
		c0.3,0,0.7-0.1,0.9-0.2L5.7,12c-0.2,0.1-0.6,0.2-1.2,0.2C2.9,12.2,2,11.2,2,9.8z M13.2,16.2H2.8v-3h10.4V16.2z M12.5,12.1h-1.2
		L9.7,7.4h1.2l0.6,2c0.2,0.6,0.3,1.1,0.4,1.7h0c0.1-0.6,0.3-1.1,0.4-1.7l0.6-2h1.1L12.5,12.1z"/>
</g>
</svg>
