<?xml version="1.0" encoding="utf-8"?>
<!-- Generator: Adobe Illustrator 17.1.0, SVG Export Plug-In . SVG Version: 6.00 Build 0)  -->
<!DOCTYPE svg PUBLIC "-//W3C//DTD SVG 1.1//EN" "http://www.w3.org/Graphics/SVG/1.1/DTD/svg11.dtd">
<svg version="1.1" id="Capa_1" xmlns="http://www.w3.org/2000/svg" xmlns:xlink="http://www.w3.org/1999/xlink" x="0px" y="0px"
	 viewBox="0 0 16 18" enable-background="new 0 0 16 18" xml:space="preserve">
<g>
	<path fill="#FFFFFF" d="M14.2,6.7h-0.4V4.9c0,0,0,0,0,0c0-0.1,0-0.1-0.1-0.2l-3.1-3.5c0,0,0,0,0,0c0,0,0,0-0.1-0.1c0,0,0,0,0,0
		c0,0,0,0-0.1,0c0,0,0,0,0,0c0,0,0,0-0.1,0H2.8C2.5,1,2.2,1.3,2.2,1.6v5.1H1.8c-0.5,0-0.9,0.4-0.9,0.9v4.7c0,0.5,0.4,0.9,0.9,0.9
		h0.4v3.2c0,0.3,0.3,0.6,0.6,0.6h10.4c0.3,0,0.6-0.3,0.6-0.6v-3.2h0.4c0.5,0,0.9-0.4,0.9-0.9V7.6C15.1,7.1,14.7,6.7,14.2,6.7z
		 M2.8,1.6h7.3v3.2c0,0.2,0.1,0.3,0.3,0.3h2.8v1.6H2.8V1.6z M10,9.9c0,0.4,0,0.8-0.1,1c-0.1,0.2-0.2,0.4-0.4,0.6
		c-0.2,0.2-0.4,0.3-0.6,0.3c-0.3,0.1-0.5,0.1-0.7,0.1H6.3v-4h1.9c0.4,0,0.7,0,0.9,0.1c0.2,0.1,0.4,0.2,0.6,0.4
		c0.1,0.2,0.3,0.4,0.3,0.6C10,9.3,10,9.6,10,9.9z M2.2,11.9v-4h2.1c0.5,0,0.8,0.1,1,0.3c0.2,0.2,0.3,0.5,0.3,0.9
		c0,0.4-0.1,0.7-0.4,1c-0.2,0.2-0.6,0.3-1.1,0.3H3.5v1.5H2.2z M13.2,16.2H2.8v-3h10.4V16.2z M13.8,8.7H12v0.7h1.6v0.8H12v1.7h-1.3
		v-4h3.1V8.7z"/>
	<path fill="#FFFFFF" d="M7.9,8.8H7.6V11h0.3c0.3,0,0.4,0,0.6-0.1c0.1-0.1,0.2-0.2,0.3-0.3c0.1-0.1,0.1-0.4,0.1-0.7
		c0-0.4-0.1-0.7-0.2-0.9C8.4,8.8,8.2,8.8,7.9,8.8z"/>
	<path fill="#FFFFFF" d="M4.3,9.5c0.1-0.1,0.1-0.2,0.1-0.3c0-0.1,0-0.2-0.1-0.3C4.2,8.7,4.1,8.7,3.8,8.7H3.5v0.9h0.3
		C4,9.6,4.2,9.5,4.3,9.5z"/>
</g>
</svg>
