<?xml version="1.0" encoding="utf-8"?>
<!-- Generator: Adobe Illustrator 17.1.0, SVG Export Plug-In . SVG Version: 6.00 Build 0)  -->
<!DOCTYPE svg PUBLIC "-//W3C//DTD SVG 1.1//EN" "http://www.w3.org/Graphics/SVG/1.1/DTD/svg11.dtd">
<svg version="1.1" id="Capa_1" xmlns="http://www.w3.org/2000/svg" xmlns:xlink="http://www.w3.org/1999/xlink" x="0px" y="0px"
	 viewBox="0 0 16 18" enable-background="new 0 0 16 18" xml:space="preserve">
<g>
	<path fill="#FFFFFF" d="M14.2,6.7h-0.4V4.9c0,0,0,0,0,0c0-0.1,0-0.1-0.1-0.2l-3.1-3.5c0,0,0,0,0,0c0,0,0,0-0.1-0.1c0,0,0,0,0,0
		c0,0,0,0-0.1,0c0,0,0,0,0,0c0,0,0,0-0.1,0H2.8C2.5,1,2.2,1.3,2.2,1.6v5.1H1.8c-0.5,0-0.9,0.4-0.9,0.9v4.7c0,0.5,0.4,0.9,0.9,0.9
		h0.4v3.2c0,0.3,0.3,0.6,0.6,0.6h10.4c0.3,0,0.6-0.3,0.6-0.6v-3.2h0.4c0.5,0,0.9-0.4,0.9-0.9V7.6C15.1,7.1,14.7,6.7,14.2,6.7z
		 M2.8,1.6h7.3v3.2c0,0.2,0.1,0.3,0.3,0.3h2.8v1.6H2.8V1.6z M9.2,10.2c-0.6-0.2-1-0.6-1-1.1C8.2,8.5,8.7,8,9.6,8
		c0.4,0,0.7,0.1,0.9,0.2l-0.2,0.7c-0.1-0.1-0.4-0.2-0.8-0.2S9,8.8,9,9c0,0.2,0.2,0.3,0.7,0.5c0.7,0.2,1,0.6,1,1.1
		c0,0.6-0.5,1.2-1.5,1.2c-0.4,0-0.8-0.1-1.1-0.2l0.2-0.7c0.2,0.1,0.6,0.2,0.9,0.2c0.4,0,0.6-0.2,0.6-0.4C9.8,10.5,9.6,10.3,9.2,10.2
		z M7.8,11v0.7H5.4V8h0.8v3H7.8z M2.7,11.7h-1l1.1-1.9L1.8,8h1l0.3,0.7c0.1,0.2,0.2,0.4,0.3,0.6h0c0.1-0.2,0.2-0.4,0.3-0.6L4,8h1
		l-1,1.8L5,11.7H4l-0.3-0.7c-0.1-0.3-0.2-0.5-0.3-0.7h0c-0.1,0.2-0.2,0.4-0.3,0.7L2.7,11.7z M13.2,16.2H2.8v-3h10.4L13.2,16.2
		L13.2,16.2z M13.2,11.7l-0.3-0.7c-0.1-0.3-0.2-0.5-0.3-0.7h0c-0.1,0.2-0.2,0.4-0.3,0.7l-0.3,0.7h-1L12,9.9L11,8h1l0.3,0.7
		c0.1,0.2,0.2,0.4,0.3,0.6h0c0.1-0.2,0.2-0.4,0.3-0.6L13.1,8h1l-1,1.8l1.1,1.9L13.2,11.7C13.2,11.7,13.2,11.7,13.2,11.7z"/>
</g>
</svg>
